<svg width="40" height="40" viewBox="0 0 40 40" fill="none" xmlns="http://www.w3.org/2000/svg">
<path d="M32.4949 13.315L19.9999 25.495L7.50495 13.315C7.2817 13.097 6.98201 12.9749 6.66995 12.9749C6.35788 12.9749 6.05819 13.097 5.83495 13.315C5.72685 13.421 5.64098 13.5474 5.58235 13.6869C5.52373 13.8264 5.49353 13.9762 5.49353 14.1275C5.49353 14.2789 5.52373 14.4287 5.58235 14.5682C5.64098 14.7077 5.72685 14.8341 5.83495 14.94L19.1274 27.9C19.3609 28.1276 19.674 28.2549 19.9999 28.2549C20.3259 28.2549 20.639 28.1276 20.8724 27.9L34.1649 14.9425C34.2738 14.8366 34.3603 14.7098 34.4194 14.5699C34.4785 14.4299 34.5089 14.2795 34.5089 14.1275C34.5089 13.9756 34.4785 13.8252 34.4194 13.6852C34.3603 13.5453 34.2738 13.4185 34.1649 13.3125C33.9417 13.0945 33.642 12.9724 33.3299 12.9724C33.0179 12.9724 32.7182 13.0945 32.4949 13.3125V13.315Z" fill="white"/>
</svg>
