<svg width="914" height="914" viewBox="0 0 914 914" fill="none" xmlns="http://www.w3.org/2000/svg">
<path d="M864.108 536.134C907.812 311.294 760.973 93.5966 536.134 49.8923C311.294 6.18792 93.5966 153.027 49.8922 377.866C6.18786 602.706 153.027 820.404 377.866 864.108C602.706 907.812 820.403 760.973 864.108 536.134Z" stroke="url(#paint0_linear_32_12)" stroke-width="6" stroke-linecap="round" stroke-dasharray="28 47"/>
<path d="M354.54 74.6129C143.353 131.2 18.0256 348.274 74.6129 559.46C131.2 770.647 348.274 895.974 559.46 839.387C770.647 782.8 895.974 565.726 839.387 354.54C782.8 143.353 565.726 18.0256 354.54 74.6129Z" stroke="url(#paint1_linear_32_12)" stroke-width="6" stroke-linecap="round" stroke-dasharray="44 16"/>
<path d="M808.983 321.886C734.362 127.491 516.281 30.3957 321.886 105.017C127.491 179.638 30.3957 397.719 105.017 592.114C179.638 786.509 397.719 883.604 592.114 808.983C786.509 734.362 883.604 516.281 808.983 321.886Z" stroke="url(#paint2_linear_32_12)" stroke-width="6" stroke-linecap="round" stroke-dasharray="47 16"/>
<path d="M160.061 657.288C270.677 821.283 493.293 864.556 657.288 753.94C821.283 643.323 864.556 420.707 753.94 256.712C643.323 92.7167 420.707 49.4444 256.712 160.061C92.7167 270.677 49.4444 493.293 160.061 657.288Z" stroke="url(#paint3_linear_32_12)" stroke-width="5" stroke-linecap="round" stroke-dasharray="55 42"/>
<path d="M272.192 741.58C429.361 843.647 639.513 798.977 741.58 641.808C843.647 484.639 798.977 274.487 641.808 172.42C484.639 70.3534 274.487 115.023 172.42 272.192C70.3535 429.361 115.023 639.513 272.192 741.58Z" stroke="url(#paint4_linear_32_12)" stroke-width="5" stroke-linecap="round" stroke-dasharray="17 35"/>
<path d="M760.012 561.335C817.634 393.987 728.684 211.611 561.335 153.989C393.987 96.3658 211.611 185.316 153.988 352.665C96.3657 520.014 185.316 702.389 352.665 760.012C520.013 817.634 702.389 728.684 760.012 561.335Z" stroke="url(#paint5_linear_32_12)" stroke-width="5" stroke-linecap="round" stroke-dasharray="45 47"/>
<path d="M160.922 399.448C129.137 562.968 235.929 721.293 399.448 753.078C562.968 784.863 721.293 678.071 753.078 514.552C784.863 351.032 678.071 192.707 514.552 160.922C351.032 129.137 192.707 235.929 160.922 399.448Z" stroke="url(#paint6_linear_32_12)" stroke-width="5" stroke-linecap="round" stroke-dasharray="39 46"/>
<path d="M549.061 189.637C401.4 138.793 240.481 217.279 189.637 364.94C138.793 512.6 217.279 673.52 364.94 724.363C512.6 775.207 673.52 696.721 724.363 549.061C775.207 401.4 696.721 240.481 549.061 189.637Z" stroke="url(#paint7_linear_32_12)" stroke-width="5" stroke-linecap="round" stroke-dasharray="22 43"/>
<path d="M195.651 493.73C215.936 638.069 349.391 738.635 493.73 718.349C638.069 698.064 738.635 564.609 718.349 420.27C698.064 275.931 564.609 175.365 420.27 195.651C275.931 215.937 175.365 349.391 195.651 493.73Z" stroke="url(#paint8_linear_32_12)" stroke-width="4" stroke-linecap="round" stroke-dasharray="20 30"/>
<path d="M212.083 448.447C207.36 583.711 313.183 697.193 448.447 701.917C583.711 706.641 697.193 600.817 701.917 465.553C706.64 330.289 600.817 216.807 465.553 212.083C330.289 207.36 216.807 313.183 212.083 448.447Z" stroke="url(#paint9_linear_32_12)" stroke-width="4" stroke-linecap="round" stroke-dasharray="32 54"/>
<path d="M233.57 421.612C214.026 545.009 298.215 660.886 421.612 680.43C545.009 699.974 660.886 615.785 680.43 492.388C699.974 368.991 615.785 253.114 492.388 233.57C368.991 214.026 253.114 298.215 233.57 421.612Z" stroke="url(#paint10_linear_32_12)" stroke-width="4" stroke-linecap="round" stroke-dasharray="25 53"/>
<path d="M356.468 275.636C256.303 331.158 220.113 457.367 275.636 557.532C331.158 657.697 457.367 693.887 557.532 638.364C657.697 582.842 693.887 456.633 638.364 356.468C582.842 256.303 456.633 220.113 356.468 275.636Z" stroke="url(#paint11_linear_32_12)" stroke-width="4" stroke-linecap="round" stroke-dasharray="10 43"/>
<path d="M575.635 310.498C494.724 244.978 376.018 257.455 310.498 338.365C244.978 419.276 257.455 537.982 338.365 603.502C419.276 669.022 537.982 656.546 603.502 575.635C669.022 494.724 656.545 376.019 575.635 310.498Z" stroke="url(#paint12_linear_32_12)" stroke-width="4" stroke-linecap="round" stroke-dasharray="38 25"/>
<path d="M457 626.661C550.701 626.661 626.661 550.701 626.661 457C626.661 363.299 550.701 287.339 457 287.339C363.299 287.339 287.339 363.299 287.339 457C287.339 550.701 363.299 626.661 457 626.661Z" stroke="url(#paint13_linear_32_12)" stroke-width="4" stroke-linecap="round" stroke-dasharray="19 39"/>
<path d="M595.821 515.926C628.365 439.257 592.595 350.723 515.926 318.179C439.257 285.635 350.723 321.405 318.179 398.074C285.635 474.743 321.405 563.277 398.074 595.821C474.743 628.365 563.277 592.595 595.821 515.926Z" stroke="url(#paint14_linear_32_12)" stroke-width="3" stroke-linecap="round" stroke-dasharray="53 23"/>
<path d="M335.531 508.56C364.007 575.646 441.475 606.945 508.56 578.469C575.646 549.993 606.945 472.525 578.469 405.44C549.993 338.354 472.525 307.055 405.44 335.531C338.354 364.007 307.055 441.475 335.531 508.56Z" stroke="url(#paint15_linear_32_12)" stroke-width="3" stroke-linecap="round" stroke-dasharray="40 11"/>
<path d="M569.832 464.89C574.19 402.575 527.205 348.526 464.89 344.168C402.575 339.811 348.526 386.795 344.168 449.11C339.811 511.425 386.795 565.474 449.11 569.832C511.425 574.19 565.474 527.205 569.832 464.89Z" stroke="url(#paint16_linear_32_12)" stroke-width="3" stroke-linecap="round" stroke-dasharray="35 24"/>
<path d="M362.873 452.067C360.149 504.052 400.082 548.403 452.067 551.127C504.052 553.851 548.403 513.918 551.127 461.933C553.851 409.948 513.918 365.597 461.933 362.873C409.948 360.149 365.597 400.082 362.873 452.067Z" stroke="url(#paint17_linear_32_12)" stroke-width="3" stroke-linecap="round" stroke-dasharray="14 29"/>
<path d="M403.681 510.319C433.128 539.767 480.872 539.767 510.319 510.319C539.767 480.872 539.767 433.128 510.319 403.681C480.872 374.233 433.128 374.233 403.681 403.681C374.233 433.128 374.233 480.872 403.681 510.319Z" stroke="url(#paint18_linear_32_12)" stroke-width="3" stroke-linecap="round" stroke-dasharray="26 46"/>
<path d="M505.476 427.873C489.39 401.1 454.645 392.438 427.873 408.524C401.1 424.611 392.437 459.355 408.524 486.127C424.611 512.9 459.355 521.563 486.127 505.476C512.9 489.39 521.563 454.645 505.476 427.873Z" stroke="url(#paint19_linear_32_12)" stroke-width="2" stroke-linecap="round" stroke-dasharray="51 44"/>
<path d="M422.83 472.934C431.63 491.805 454.062 499.97 472.934 491.17C491.805 482.37 499.97 459.938 491.17 441.066C482.37 422.195 459.938 414.03 441.066 422.83C422.195 431.63 414.03 454.062 422.83 472.934Z" stroke="url(#paint20_linear_32_12)" stroke-width="2" stroke-linecap="round" stroke-dasharray="24 16"/>
<path d="M443.905 470.561C451.394 477.793 463.328 477.585 470.56 470.095C477.793 462.606 477.584 450.672 470.095 443.44C462.606 436.207 450.672 436.416 443.44 443.905C436.207 451.394 436.416 463.328 443.905 470.561Z" stroke="url(#paint21_linear_32_12)" stroke-width="2" stroke-linecap="round" stroke-dasharray="31 23"/>
<defs>
<linearGradient id="paint0_linear_32_12" x1="7884.13" y1="-39925.8" x2="89305.7" y2="-24099.1" gradientUnits="userSpaceOnUse">
<stop stop-color="#1F89DB" stop-opacity="0.42"/>
<stop offset="1" stop-color="#F42A8B"/>
</linearGradient>
<linearGradient id="paint1_linear_32_12" x1="-37296.9" y1="10983" x2="-57788.9" y2="-65494.5" gradientUnits="userSpaceOnUse">
<stop stop-color="#1F89DB" stop-opacity="0.42"/>
<stop offset="1" stop-color="#F42A8B"/>
</linearGradient>
<linearGradient id="paint2_linear_32_12" x1="-13271.2" y1="-34254.2" x2="57125.4" y2="-61277" gradientUnits="userSpaceOnUse">
<stop stop-color="#1F89DB" stop-opacity="0.42"/>
<stop offset="1" stop-color="#F42A8B"/>
</linearGradient>
<linearGradient id="paint3_linear_32_12" x1="20582.5" y1="29653.7" x2="-38805.4" y2="69711.4" gradientUnits="userSpaceOnUse">
<stop stop-color="#1F89DB" stop-opacity="0.42"/>
<stop offset="1" stop-color="#F42A8B"/>
</linearGradient>
<linearGradient id="paint4_linear_32_12" x1="28815.2" y1="18468.4" x2="-8146.45" y2="75384.4" gradientUnits="userSpaceOnUse">
<stop stop-color="#1F89DB" stop-opacity="0.42"/>
<stop offset="1" stop-color="#F42A8B"/>
</linearGradient>
<linearGradient id="paint5_linear_32_12" x1="10483.2" y1="-29645.5" x2="71085.5" y2="-8778.43" gradientUnits="userSpaceOnUse">
<stop stop-color="#1F89DB" stop-opacity="0.42"/>
<stop offset="1" stop-color="#F42A8B"/>
</linearGradient>
<linearGradient id="paint6_linear_32_12" x1="-4944.55" y1="29826.3" x2="-64160.2" y2="18316" gradientUnits="userSpaceOnUse">
<stop stop-color="#1F89DB" stop-opacity="0.42"/>
<stop offset="1" stop-color="#F42A8B"/>
</linearGradient>
<linearGradient id="paint7_linear_32_12" x1="-26104" y1="-8389.63" x2="-7691.91" y2="-61862.2" gradientUnits="userSpaceOnUse">
<stop stop-color="#1F89DB" stop-opacity="0.42"/>
<stop offset="1" stop-color="#F42A8B"/>
</linearGradient>
<linearGradient id="paint8_linear_32_12" x1="4354.64" y1="26293.8" x2="-47915.2" y2="33639.9" gradientUnits="userSpaceOnUse">
<stop stop-color="#1F89DB" stop-opacity="0.42"/>
<stop offset="1" stop-color="#F42A8B"/>
</linearGradient>
<linearGradient id="paint9_linear_32_12" x1="-144.799" y1="24712.3" x2="-49128.2" y2="23001.8" gradientUnits="userSpaceOnUse">
<stop stop-color="#1F89DB" stop-opacity="0.42"/>
<stop offset="1" stop-color="#F42A8B"/>
</linearGradient>
<linearGradient id="paint10_linear_32_12" x1="-2822.96" y1="22612" x2="-47509" y2="15534.4" gradientUnits="userSpaceOnUse">
<stop stop-color="#1F89DB" stop-opacity="0.42"/>
<stop offset="1" stop-color="#F42A8B"/>
</linearGradient>
<linearGradient id="paint11_linear_32_12" x1="-17397.5" y1="10591" x2="-37503.9" y2="-25681.9" gradientUnits="userSpaceOnUse">
<stop stop-color="#1F89DB" stop-opacity="0.42"/>
<stop offset="1" stop-color="#F42A8B"/>
</linearGradient>
<linearGradient id="paint12_linear_32_12" x1="-14165.3" y1="-11141.3" x2="9561.65" y2="-40441.7" gradientUnits="userSpaceOnUse">
<stop stop-color="#1F89DB" stop-opacity="0.42"/>
<stop offset="1" stop-color="#F42A8B"/>
</linearGradient>
<linearGradient id="paint13_linear_32_12" x1="17253.5" y1="287.339" x2="17253.5" y2="34219.6" gradientUnits="userSpaceOnUse">
<stop stop-color="#1F89DB" stop-opacity="0.42"/>
<stop offset="1" stop-color="#F42A8B"/>
</linearGradient>
<linearGradient id="paint14_linear_32_12" x1="6151.87" y1="-13345.2" x2="33916.1" y2="-1560.01" gradientUnits="userSpaceOnUse">
<stop stop-color="#1F89DB" stop-opacity="0.42"/>
<stop offset="1" stop-color="#F42A8B"/>
</linearGradient>
<linearGradient id="paint15_linear_32_12" x1="5682.95" y1="12430.8" x2="-18610.8" y2="22742.9" gradientUnits="userSpaceOnUse">
<stop stop-color="#1F89DB" stop-opacity="0.42"/>
<stop offset="1" stop-color="#F42A8B"/>
</linearGradient>
<linearGradient id="paint16_linear_32_12" x1="1125.28" y1="-10721.3" x2="23691.7" y2="-9143.26" gradientUnits="userSpaceOnUse">
<stop stop-color="#1F89DB" stop-opacity="0.42"/>
<stop offset="1" stop-color="#F42A8B"/>
</linearGradient>
<linearGradient id="paint17_linear_32_12" x1="62.761" y1="9780.51" x2="-18762.7" y2="8793.92" gradientUnits="userSpaceOnUse">
<stop stop-color="#1F89DB" stop-opacity="0.42"/>
<stop offset="1" stop-color="#F42A8B"/>
</linearGradient>
<linearGradient id="paint18_linear_32_12" x1="5788.94" y1="5682.3" x2="-4874.94" y2="16346.2" gradientUnits="userSpaceOnUse">
<stop stop-color="#1F89DB" stop-opacity="0.42"/>
<stop offset="1" stop-color="#F42A8B"/>
</linearGradient>
<linearGradient id="paint19_linear_32_12" x1="-2475.08" y1="-4313" x2="7220.12" y2="-10138.5" gradientUnits="userSpaceOnUse">
<stop stop-color="#1F89DB" stop-opacity="0.42"/>
<stop offset="1" stop-color="#F42A8B"/>
</linearGradient>
<linearGradient id="paint20_linear_32_12" x1="2068.61" y1="3823.9" x2="-4765.4" y2="7010.66" gradientUnits="userSpaceOnUse">
<stop stop-color="#1F89DB" stop-opacity="0.42"/>
<stop offset="1" stop-color="#F42A8B"/>
</linearGradient>
<linearGradient id="paint21_linear_32_12" x1="1812.58" y1="1739.86" x2="-806.456" y2="4451.95" gradientUnits="userSpaceOnUse">
<stop stop-color="#1F89DB" stop-opacity="0.42"/>
<stop offset="1" stop-color="#F42A8B"/>
</linearGradient>
</defs>
</svg>
